<?xml version="1.0" encoding="iso-8859-1"?>
<!-- Generator: Adobe Illustrator 19.0.0, SVG Export Plug-In . SVG Version: 6.00 Build 0)  -->
<svg version="1.1" id="Capa_1" xmlns="http://www.w3.org/2000/svg" xmlns:xlink="http://www.w3.org/1999/xlink" x="0px" y="0px"
	 viewBox="0 0 480 480" style="enable-background:new 0 0 480 480;" xml:space="preserve">
<g>
	<g>
		<path d="M456,72H24C10.745,72,0,82.745,0,96v288c-0.015,5.043,1.579,9.959,4.552,14.032C9.058,404.285,16.293,407.993,24,408h432
			c7.696-0.005,14.922-3.7,19.432-9.936c2.98-4.083,4.581-9.009,4.568-14.064V96C480,82.745,469.255,72,456,72z M16,379.416V124.608
			L180.92,252L16,379.416z M25.88,392L194,262.112l31.336,24.192c8.639,6.668,20.689,6.668,29.328,0L286,262.112L454.12,392H25.88z
			 M464,379.416L299.08,252L464,124.608V379.416z M464,104.392L244.888,273.64c-2.88,2.223-6.896,2.223-9.776,0L16,104.392V96
			c0-4.418,3.582-8,8-8h432c4.418,0,8,3.582,8,8V104.392z"/>
	</g>
</g>
<g>
</g>
<g>
</g>
<g>
</g>
<g>
</g>
<g>
</g>
<g>
</g>
<g>
</g>
<g>
</g>
<g>
</g>
<g>
</g>
<g>
</g>
<g>
</g>
<g>
</g>
<g>
</g>
<g>
</g>
</svg>
